<?xml version="1.0" encoding="UTF-8" standalone="no"?>
<svg width="110px" height="83px" viewBox="0 0 110 83" version="1.1" xmlns="http://www.w3.org/2000/svg" xmlns:xlink="http://www.w3.org/1999/xlink">
    <defs></defs>
    <g id="Page-1" stroke="none" stroke-width="1" fill="none" fill-rule="evenodd">
        <g id="Desktop" transform="translate(-50.000000, -50.000000)" fill="#1A1918">
            <path d="M156.929938,50.7919132 C156.929938,50.7919132 145.776029,60.7679646 120.453639,60.1633554 C95.1312492,59.5587462 58.5795855,54.4195682 55.8664723,76.2610746 C55.8664723,85.3797902 69.286133,86.2516366 70.9646457,86.4136719 C54.7860503,99.5639214 41.9337317,120.546883 56.0841243,130.718827 C67.4749792,138.907654 85.3429397,123.741638 99.4071155,106.026589 C107.186515,106.954059 119.650557,96.8431801 119.650557,96.8431801 L119.549268,94.3237737 C119.549268,94.3237737 107.038801,102.183693 102.931751,101.579084 C108.637729,94.2191763 114.349737,86.5726841 118.268075,82.3071664 C128.065429,71.2228664 144.669681,62.2166081 125.723108,72.4441769 C114.889345,78.2919568 108.842117,87.7335337 99.3426037,100.959964 C91.1122242,99.3117994 104.928602,80.2666104 104.928602,80.2666104 C104.928602,80.2666104 102.316176,79.9643058 99.9551644,81.4758287 C94.3221385,85.0817179 88.9025442,101.431559 83.9779423,101.277384 C77.5466583,101.075444 91.9665534,79.9141232 91.9665534,79.9141232 C91.9665534,79.9141232 88.3400254,78.0174643 77.5900681,81.8186421 C72.6413496,83.2763549 63.2105682,82.4631555 62.272434,79.5108489 C60.6445661,74.3867862 61.7207676,64.7317823 120.746052,65.4573133 C143.20038,64.5092861 141.47484,63.6579964 151.494668,58.2020032 C163.105587,51.8796051 160.607714,48.3166432 156.929938,50.7919132 L156.929938,50.7919132 Z M80.7061332,85 C80.7061332,85 70.3283029,99.4605982 74.6325124,106.440192 C78.8965609,113.354066 90.3430225,95.9099506 90.3430225,95.9099506 C90.3430225,95.9099506 89.4699577,103.668435 94,105.017499 C94,105.017499 91.3418087,108.476262 89.8575985,110.209902 C75.0154968,127.552397 65.6661368,131.275253 59.5913519,125.422617 C44.7498322,111.123274 80.7061332,85 80.7061332,85 L80.7061332,85 Z" id="Logo"></path>
        </g>
    </g>
</svg>